PERFORMER "Sasha"
TITLE "Essential Mix (2007-08-11) (Live @ Cream Amnesia Ibiza)"
FILE "Sasha - Essential Mix Cream Amnesia Ibiza (11-08-2007).mp3" MP3
  TRACK 01 AUDIO
    TITLE "La Forme (King Of The Mountains Mix)"
    PERFORMER "Kraftwerk"
    INDEX 01 00:00:00
  TRACK 02 AUDIO
    TITLE "Cellphone's Dead (Ellen Allien Remix)"
    PERFORMER "Beck"
    INDEX 01 10:55:00
  TRACK 03 AUDIO
    TITLE "Monday"
    PERFORMER "C.O.M.A"
    INDEX 01 15:31:00
  TRACK 04 AUDIO
    TITLE "Sun"
    PERFORMER "Robytek"
    INDEX 01 24:10:00
  TRACK 05 AUDIO
    TITLE "Silverlake Pills (Gui Boratto Remix)"
    PERFORMER "Adam Freeland"
    INDEX 01 30:54:00
  TRACK 06 AUDIO
    TITLE "The Mongoose"
    PERFORMER "Kevlar"
    INDEX 01 36:39:00
  TRACK 07 AUDIO
    TITLE "Neotron (Ryan Davis Edit)"
    PERFORMER "Davis & May"
    INDEX 01 45:10:00
  TRACK 08 AUDIO
    TITLE "Ghost"
    PERFORMER "Superlounge"
    INDEX 01 50:09:00
  TRACK 09 AUDIO
    TITLE "Unsafe"
    PERFORMER "Rouzbeh Delavari"
    INDEX 01 56:06:00
  TRACK 10 AUDIO
    TITLE "Spara Mig"
    PERFORMER "Özgür Can"
    INDEX 01 61:06:00
  TRACK 11 AUDIO
    TITLE "Nell (Joe T. Vannelli Remix)"
    PERFORMER "Jerome Isma-Ae & Melih Ask"
    INDEX 01 67:20:00
  TRACK 12 AUDIO
    TITLE "Elefont"
    PERFORMER "Steve T"
    INDEX 01 74:17:00
  TRACK 13 AUDIO
    TITLE "Al Tiga Li Babeten (Beta Bokka Remix)"
    PERFORMER "Gamma Rox & Roy Brizman"
    INDEX 01 79:16:00
  TRACK 14 AUDIO
    TITLE "Ironman"
    PERFORMER "Pryda"
    INDEX 01 84:44:00
  TRACK 15 AUDIO
    TITLE "Brasilia"
    PERFORMER "Federico Epis"
    INDEX 01 93:11:00
  TRACK 16 AUDIO
    TITLE "All By Yourself"
    PERFORMER "Francesco Pico"
    INDEX 01 98:49:00
  TRACK 17 AUDIO
    TITLE "Peg (Edison Dub)"
    PERFORMER "Nerina Pallot"
    INDEX 01 106:08:00
  TRACK 18 AUDIO
    TITLE "Crocodile"
    PERFORMER "Underworld"
    INDEX 01 112:17:00